<svg width="24" height="25" viewBox="0 0 24 25" fill="none" xmlns="http://www.w3.org/2000/svg">
<path d="M14 21.4882H10M18 8.48816C18 6.89686 17.3679 5.37074 16.2427 4.24552C15.1174 3.1203 13.5913 2.48816 12 2.48816C10.4087 2.48816 8.8826 3.1203 7.75738 4.24552C6.63216 5.37074 6.00002 6.89686 6.00002 8.48816C6.00002 11.5783 5.22049 13.6941 4.34968 15.0936C3.61515 16.274 3.24788 16.8643 3.26134 17.0289C3.27626 17.2112 3.31488 17.2808 3.46179 17.3897C3.59448 17.4882 4.19261 17.4882 5.38887 17.4882H18.6112C19.8074 17.4882 20.4056 17.4882 20.5382 17.3897C20.6852 17.2808 20.7238 17.2112 20.7387 17.0289C20.7522 16.8643 20.3849 16.274 19.6504 15.0936C18.7795 13.6941 18 11.5783 18 8.48816Z" stroke="white" strokeWidth="2" strokeLinecap="round" stroke-linejoin="round"/>
</svg>
