<svg width="117" height="35" viewBox="0 0 117 35" fill="none" xmlns="http://www.w3.org/2000/svg">
<path d="M108.83 14.4055V11.8738H108.046V11.3135H110.245V11.8738H109.473V14.4055H108.83ZM110.564 14.4055V11.3135H111.186L112.344 12.8491H112.054L113.179 11.3135H113.801V14.4055H113.158V12.0232L113.415 12.0813L112.224 13.6169H112.141L110.991 12.0813L111.207 12.0232V14.4055H110.564Z" fill="white"/>
<path d="M46.5863 28.5355C47.6222 28.5355 48.5386 28.3462 49.3355 27.9677C50.1324 27.5693 50.74 26.9716 51.1583 26.1747V28.1769H55.3419V11.8609H50.8595V21.3935C50.8595 22.3298 50.5806 23.0869 50.0228 23.6646C49.465 24.2224 48.7478 24.5013 47.8712 24.5013C46.9947 24.5013 46.2775 24.2224 45.7197 23.6646C45.1619 23.0869 44.883 22.3298 44.883 21.3935V11.8609H40.4006V21.7521C40.4006 23.7841 40.9285 25.4277 41.9844 26.6827C43.0601 27.9179 44.5941 28.5355 46.5863 28.5355Z" fill="white"/>
<path d="M58.6181 10.3967H63.1005V5.91426H58.6181V10.3967ZM58.6181 28.1769H63.1005V11.8609H58.6181V28.1769Z" fill="white"/>
<path d="M68.3528 28.1769H72.8352V15.7457H76.3315V11.8609H72.8352V11.6219C72.8352 10.1676 73.6819 9.44042 75.3752 9.44042C75.6542 9.44042 75.9829 9.4703 76.3614 9.53006V5.70508C75.9032 5.60547 75.3752 5.55566 74.7776 5.55566C72.7456 5.55566 71.1618 6.08359 70.0262 7.13945C68.9106 8.1953 68.3528 9.68944 68.3528 11.6219V11.8609H65.6036V15.7457H68.3528V28.1769Z" fill="white"/>
<path d="M78.6371 28.1769H83.1195V19.3914C83.1195 18.1761 83.4582 17.2398 84.1355 16.5824C84.8129 15.905 85.6994 15.5664 86.7951 15.5664H88.1996V11.6816H87.2433C86.2473 11.6816 85.3607 11.8709 84.5838 12.2494C83.8268 12.608 83.2391 13.2953 82.8207 14.3113V11.8609H78.6371V28.1769Z" fill="white"/>
<path d="M92.7042 34.8108C95.6924 34.8108 97.854 33.1075 99.1887 29.7009L106.181 11.8609H101.37L97.5153 22.3497L93.6604 11.8609H88.8493L95.2741 28.1769L94.9753 28.8642C94.7362 29.4021 94.4274 29.8802 94.0489 30.2985C93.6704 30.7169 93.0428 30.9261 92.1663 30.9261C91.4491 30.9261 90.7718 30.8265 90.1343 30.6273V34.3028C90.4729 34.4821 90.8614 34.6116 91.2997 34.6913C91.7579 34.771 92.2261 34.8108 92.7042 34.8108Z" fill="white"/>
<g clip-path="url(#clip0_266_236)">
<path d="M26.3829 11.2907C26.1564 11.0707 25.8387 10.9707 25.5277 11.0218C25.2162 11.0727 24.9472 11.2683 24.8027 11.5489C24.3057 12.5144 23.6745 13.4017 22.9318 14.186C23.0058 13.6194 23.0431 13.0494 23.0431 12.4779C23.0431 11.3814 22.8961 10.2529 22.6061 9.12357C21.6527 5.41405 19.1525 2.27695 15.7468 0.516723C15.4503 0.363523 15.097 0.368902 14.8053 0.531066C14.5136 0.693297 14.3226 0.99073 14.2964 1.32343C14.0309 4.69447 12.2945 7.76138 9.52981 9.73975C9.49322 9.76612 9.4569 9.79281 9.42057 9.81937C9.34534 9.87443 9.27441 9.92649 9.20814 9.97018C9.19778 9.97709 9.18749 9.98413 9.17739 9.99137C7.43861 11.2363 6.00391 12.8958 5.0282 14.7909C4.03675 16.7187 3.53406 18.7873 3.53406 20.9392C3.53406 22.0354 3.68101 23.1638 3.97088 24.2934C5.50055 30.2472 10.8585 34.4054 17.0004 34.4054C24.4253 34.4054 30.4659 28.3644 30.4659 20.9392C30.4659 17.2775 29.0159 13.851 26.3829 11.2907V11.2907Z" fill="#FF5555"/>
<circle cx="16" cy="20.4055" r="4" fill="white"/>
</g>
<defs>
<clipPath id="clip0_266_236">
<rect width="34" height="34" fill="white" transform="translate(0 0.405518)"/>
</clipPath>
</defs>
</svg>
